<svg id="visual" viewBox="0 0 960 540" width="960" height="540" xmlns="http://www.w3.org/2000/svg" xmlns:xlink="http://www.w3.org/1999/xlink" version="1.1"><path d="M0 190L80 190L80 125L160 125L160 152L240 152L240 136L320 136L320 104L400 104L400 190L480 190L480 104L560 104L560 120L640 120L640 147L720 147L720 217L800 217L800 147L880 147L880 104L960 104L960 87L960 0L960 0L880 0L880 0L800 0L800 0L720 0L720 0L640 0L640 0L560 0L560 0L480 0L480 0L400 0L400 0L320 0L320 0L240 0L240 0L160 0L160 0L80 0L80 0L0 0Z" fill="#ebe8e8"></path><path d="M0 222L80 222L80 195L160 195L160 201L240 201L240 206L320 206L320 168L400 168L400 276L480 276L480 190L560 190L560 174L640 174L640 185L720 185L720 266L800 266L800 222L880 222L880 185L960 185L960 168L960 85L960 102L880 102L880 145L800 145L800 215L720 215L720 145L640 145L640 118L560 118L560 102L480 102L480 188L400 188L400 102L320 102L320 134L240 134L240 150L160 150L160 123L80 123L80 188L0 188Z" fill="#e2d5e3"></path><path d="M0 347L80 347L80 239L160 239L160 249L240 249L240 303L320 303L320 233L400 233L400 325L480 325L480 266L560 266L560 244L640 244L640 325L720 325L720 320L800 320L800 303L880 303L880 293L960 293L960 233L960 166L960 183L880 183L880 220L800 220L800 264L720 264L720 183L640 183L640 172L560 172L560 188L480 188L480 274L400 274L400 166L320 166L320 204L240 204L240 199L160 199L160 193L80 193L80 220L0 220Z" fill="#b8cbe7"></path><path d="M0 395L80 395L80 276L160 276L160 309L240 309L240 352L320 352L320 282L400 282L400 379L480 379L480 309L560 309L560 271L640 271L640 379L720 379L720 374L800 374L800 352L880 352L880 314L960 314L960 287L960 231L960 291L880 291L880 301L800 301L800 318L720 318L720 323L640 323L640 242L560 242L560 264L480 264L480 323L400 323L400 231L320 231L320 301L240 301L240 247L160 247L160 237L80 237L80 345L0 345Z" fill="#9fc9e3"></path><path d="M0 433L80 433L80 303L160 303L160 336L240 336L240 390L320 390L320 325L400 325L400 428L480 428L480 352L560 352L560 303L640 303L640 411L720 411L720 406L800 406L800 384L880 384L880 374L960 374L960 314L960 285L960 312L880 312L880 350L800 350L800 372L720 372L720 377L640 377L640 269L560 269L560 307L480 307L480 377L400 377L400 280L320 280L320 350L240 350L240 307L160 307L160 274L80 274L80 393L0 393Z" fill="#b8cbe7"></path><path d="M0 460L80 460L80 368L160 368L160 379L240 379L240 417L320 417L320 352L400 352L400 482L480 482L480 379L560 379L560 336L640 336L640 433L720 433L720 471L800 471L800 438L880 438L880 428L960 428L960 336L960 312L960 372L880 372L880 382L800 382L800 404L720 404L720 409L640 409L640 301L560 301L560 350L480 350L480 426L400 426L400 323L320 323L320 388L240 388L240 334L160 334L160 301L80 301L80 431L0 431Z" fill="#e2d5e3"></path><path d="M0 541L80 541L80 541L160 541L160 541L240 541L240 541L320 541L320 541L400 541L400 541L480 541L480 541L560 541L560 541L640 541L640 541L720 541L720 541L800 541L800 541L880 541L880 541L960 541L960 541L960 334L960 426L880 426L880 436L800 436L800 469L720 469L720 431L640 431L640 334L560 334L560 377L480 377L480 480L400 480L400 350L320 350L320 415L240 415L240 377L160 377L160 366L80 366L80 458L0 458Z" fill="#ebe8e8"></path></svg>