<svg id="visual" viewBox="0 0 90 50" width="90" height="50" xmlns="http://www.w3.org/2000/svg" xmlns:xlink="http://www.w3.org/1999/xlink" version="1.1"><path d="M0 10L1.3 10.2C2.7 10.3 5.3 10.7 8 10.2C10.7 9.7 13.3 8.3 16.2 7.5C19 6.7 22 6.3 24.8 6.7C27.7 7 30.3 8 33 9C35.7 10 38.3 11 41 10.5C43.7 10 46.3 8 49 7.8C51.7 7.7 54.3 9.3 57 9.8C59.7 10.3 62.3 9.7 65.2 8.8C68 8 71 7 73.8 7.3C76.7 7.7 79.3 9.3 82 9.8C84.7 10.3 87.3 9.7 88.7 9.3L90 9L90 0L88.7 0C87.3 0 84.7 0 82 0C79.3 0 76.7 0 73.8 0C71 0 68 0 65.2 0C62.3 0 59.7 0 57 0C54.3 0 51.7 0 49 0C46.3 0 43.7 0 41 0C38.3 0 35.7 0 33 0C30.3 0 27.7 0 24.8 0C22 0 19 0 16.2 0C13.3 0 10.7 0 8 0C5.3 0 2.7 0 1.3 0L0 0Z" fill="#ebe8e8"></path><path d="M0 15L1.3 15.2C2.7 15.3 5.3 15.7 8 14.8C10.7 14 13.3 12 16.2 11.7C19 11.3 22 12.7 24.8 13.3C27.7 14 30.3 14 33 14.2C35.7 14.3 38.3 14.7 41 14.8C43.7 15 46.3 15 49 15.7C51.7 16.3 54.3 17.7 57 17.7C59.7 17.7 62.3 16.3 65.2 15.3C68 14.3 71 13.7 73.8 13.7C76.7 13.7 79.3 14.3 82 14.5C84.7 14.7 87.3 14.3 88.7 14.2L90 14L90 7L88.7 7.3C87.3 7.7 84.7 8.3 82 7.8C79.3 7.3 76.7 5.7 73.8 5.3C71 5 68 6 65.2 6.8C62.3 7.7 59.7 8.3 57 7.8C54.3 7.3 51.7 5.7 49 5.8C46.3 6 43.7 8 41 8.5C38.3 9 35.7 8 33 7C30.3 6 27.7 5 24.8 4.7C22 4.3 19 4.7 16.2 5.5C13.3 6.3 10.7 7.7 8 8.2C5.3 8.7 2.7 8.3 1.3 8.2L0 8Z" fill="#d2cfe6"></path><path d="M0 23L1.3 23.7C2.7 24.3 5.3 25.7 8 24.5C10.7 23.3 13.3 19.7 16.2 18.8C19 18 22 20 24.8 21.7C27.7 23.3 30.3 24.7 33 24.8C35.7 25 38.3 24 41 23.3C43.7 22.7 46.3 22.3 49 22.5C51.7 22.7 54.3 23.3 57 24.2C59.7 25 62.3 26 65.2 25C68 24 71 21 73.8 20.2C76.7 19.3 79.3 20.7 82 21.3C84.7 22 87.3 22 88.7 22L90 22L90 12L88.7 12.2C87.3 12.3 84.7 12.7 82 12.5C79.3 12.3 76.7 11.7 73.8 11.7C71 11.7 68 12.3 65.2 13.3C62.3 14.3 59.7 15.7 57 15.7C54.3 15.7 51.7 14.3 49 13.7C46.3 13 43.7 13 41 12.8C38.3 12.7 35.7 12.3 33 12.2C30.3 12 27.7 12 24.8 11.3C22 10.7 19 9.3 16.2 9.7C13.3 10 10.7 12 8 12.8C5.3 13.7 2.7 13.3 1.3 13.2L0 13Z" fill="#9fc9e3"></path><path d="M0 42L1.3 40.7C2.7 39.3 5.3 36.7 8 34.5C10.7 32.3 13.3 30.7 16.2 31.7C19 32.7 22 36.3 24.8 37.7C27.7 39 30.3 38 33 38.7C35.7 39.3 38.3 41.7 41 40.8C43.7 40 46.3 36 49 35.2C51.7 34.3 54.3 36.7 57 38.7C59.7 40.7 62.3 42.3 65.2 40.5C68 38.7 71 33.3 73.8 31.7C76.7 30 79.3 32 82 34.2C84.7 36.3 87.3 38.7 88.7 39.8L90 41L90 20L88.7 20C87.3 20 84.7 20 82 19.3C79.3 18.7 76.7 17.3 73.8 18.2C71 19 68 22 65.2 23C62.3 24 59.7 23 57 22.2C54.3 21.3 51.7 20.7 49 20.5C46.3 20.3 43.7 20.7 41 21.3C38.3 22 35.7 23 33 22.8C30.3 22.7 27.7 21.3 24.8 19.7C22 18 19 16 16.2 16.8C13.3 17.7 10.7 21.3 8 22.5C5.3 23.7 2.7 22.3 1.3 21.7L0 21Z" fill="#d2cfe6"></path><path d="M0 51L1.3 51C2.7 51 5.3 51 8 51C10.7 51 13.3 51 16.2 51C19 51 22 51 24.8 51C27.7 51 30.3 51 33 51C35.7 51 38.3 51 41 51C43.7 51 46.3 51 49 51C51.7 51 54.3 51 57 51C59.7 51 62.3 51 65.2 51C68 51 71 51 73.8 51C76.7 51 79.3 51 82 51C84.7 51 87.3 51 88.7 51L90 51L90 39L88.7 37.8C87.3 36.7 84.7 34.3 82 32.2C79.3 30 76.7 28 73.8 29.7C71 31.3 68 36.7 65.2 38.5C62.3 40.3 59.7 38.7 57 36.7C54.3 34.7 51.7 32.3 49 33.2C46.3 34 43.7 38 41 38.8C38.3 39.7 35.7 37.3 33 36.7C30.3 36 27.7 37 24.8 35.7C22 34.3 19 30.7 16.2 29.7C13.3 28.7 10.7 30.3 8 32.5C5.3 34.7 2.7 37.3 1.3 38.7L0 40Z" fill="#ebe8e8"></path></svg>